<svg width="64" height="64" viewBox="0 0 64 64" fill="none" xmlns="http://www.w3.org/2000/svg">
    <path d="M32 16C34.2091 16 36 14.2091 36 12C36 9.79086 34.2091 8 32 8C29.7909 8 28 9.79086 28 12C28 14.2091 29.7909 16 32 16Z" fill="#FFFFFF"/>
    <path d="M48 32C50.2091 32 52 30.2091 52 28C52 25.7909 50.2091 24 48 24C45.7909 24 44 25.7909 44 28C44 30.2091 45.7909 32 48 32Z" fill="#FFFFFF"/>
    <path d="M16 32C18.2091 32 20 30.2091 20 28C20 25.7909 18.2091 24 16 24C13.7909 24 12 25.7909 12 28C12 30.2091 13.7909 32 16 32Z" fill="#FFFFFF"/>
    <path d="M32 56C34.2091 56 36 54.2091 36 52C36 49.7909 34.2091 48 32 48C29.7909 48 28 49.7909 28 52C28 54.2091 29.7909 56 32 56Z" fill="#FFFFFF"/>
    <path d="M32 16V48M16 32H48" stroke="#FFFFFF" stroke-width="2"/>
</svg> 