<svg width="24" height="24" viewBox="0 0 24 24" fill="none" xmlns="http://www.w3.org/2000/svg">
    <path fill-rule="evenodd" clip-rule="evenodd" d="M12 3C9.556 3 9.249 3.01 8.289 3.054C7.331 3.098 6.677 3.25 6.105 3.472C5.513 3.702 5.011 4.01 4.511 4.511C4.01 5.011 3.702 5.513 3.472 6.105C3.25 6.677 3.098 7.331 3.054 8.289C3.01 9.249 3 9.556 3 12C3 14.444 3.01 14.751 3.054 15.711C3.098 16.669 3.25 17.323 3.472 17.895C3.702 18.487 4.01 18.989 4.511 19.489C5.011 19.99 5.513 20.298 6.105 20.528C6.677 20.75 7.331 20.902 8.289 20.946C9.249 20.99 9.556 21 12 21C14.444 21 14.751 20.99 15.711 20.946C16.669 20.902 17.323 20.75 17.895 20.528C18.487 20.298 18.989 19.99 19.489 19.489C19.99 18.989 20.298 18.487 20.528 17.895C20.75 17.323 20.902 16.669 20.946 15.711C20.99 14.751 21 14.444 21 12C21 9.556 20.99 9.249 20.946 8.289C20.902 7.331 20.75 6.677 20.528 6.105C20.298 5.513 19.99 5.011 19.489 4.511C18.989 4.01 18.487 3.702 17.895 3.472C17.323 3.25 16.669 3.098 15.711 3.054C14.751 3.01 14.444 3 12 3ZM12 4.622C14.403 4.622 14.688 4.63 15.637 4.674C16.514 4.715 16.987 4.859 17.3 4.982C17.696 5.138 18.004 5.326 18.312 5.634C18.62 5.942 18.808 6.25 18.964 6.646C19.087 6.959 19.231 7.432 19.272 8.309C19.316 9.258 19.324 9.543 19.324 11.946C19.324 14.349 19.316 14.634 19.272 15.583C19.231 16.46 19.087 16.933 18.964 17.246C18.808 17.642 18.62 17.95 18.312 18.258C18.004 18.566 17.696 18.754 17.3 18.91C16.987 19.033 16.514 19.177 15.637 19.218C14.688 19.262 14.404 19.27 12 19.27C9.596 19.27 9.312 19.262 8.363 19.218C7.486 19.177 7.013 19.033 6.7 18.91C6.304 18.754 5.996 18.566 5.688 18.258C5.38 17.95 5.192 17.642 5.036 17.246C4.913 16.933 4.769 16.46 4.728 15.583C4.684 14.634 4.676 14.349 4.676 11.946C4.676 9.543 4.684 9.258 4.728 8.309C4.769 7.432 4.913 6.959 5.036 6.646C5.192 6.25 5.38 5.942 5.688 5.634C5.996 5.326 6.304 5.138 6.7 4.982C7.013 4.859 7.486 4.715 8.363 4.674C9.312 4.63 9.597 4.622 12 4.622Z" fill="currentColor"/>
    <path fill-rule="evenodd" clip-rule="evenodd" d="M12 15.004C10.3431 15.004 9 13.6608 9 12.004C9 10.3471 10.3431 9.00397 12 9.00397C13.6569 9.00397 15 10.3471 15 12.004C15 13.6608 13.6569 15.004 12 15.004ZM12 7.37695C9.44717 7.37695 7.37305 9.45107 7.37305 12.004C7.37305 14.5568 9.44717 16.6309 12 16.6309C14.5528 16.6309 16.627 14.5568 16.627 12.004C16.627 9.45107 14.5528 7.37695 12 7.37695Z" fill="currentColor"/>
    <path d="M17.8047 7.19177C17.8047 7.79132 17.3179 8.27814 16.7184 8.27814C16.1188 8.27814 15.632 7.79132 15.632 7.19177C15.632 6.59223 16.1188 6.10541 16.7184 6.10541C17.3179 6.10541 17.8047 6.59223 17.8047 7.19177Z" fill="currentColor"/>
</svg> 