<svg width="24" height="24" viewBox="0 0 24 24" fill="none" xmlns="http://www.w3.org/2000/svg">
    <path d="M20.8 7.8C20.9 7.3 20.8 7 20.2 7H18.3C17.8 7 17.6 7.3 17.5 7.6C17.5 7.6 16.4 10.3 14.9 12.1C14.4 12.6 14.2 12.7 14 12.7C13.9 12.7 13.7 12.6 13.7 12.1V7.8C13.7 7.3 13.5 7 13.1 7H10.1C9.8 7 9.6 7.3 9.6 7.6C9.6 8.1 10.3 8.2 10.4 9.7V12.8C10.4 13.4 10.2 13.5 10 13.5C9.3 13.5 7.6 10.8 6.5 7.9C6.3 7.3 6.1 7 5.6 7H3.7C3.1 7 3 7.3 3 7.6C3 8.1 3.7 10.9 6.4 14.5C8.2 17 10.8 18.3 13.1 18.3C14.4 18.3 14.6 18 14.6 17.5V15.8C14.6 15.2 14.7 15.1 15.2 15.1C15.4 15.1 15.9 15.2 17.2 16.4C18.7 17.9 18.9 18.3 19.6 18.3H21.5C22.1 18.3 22.4 18 22.2 17.5C22 17 21.3 16.2 20.4 15.2C19.9 14.6 19.2 14 19 13.7C18.8 13.5 18.8 13.4 19 13.1C19 13.1 21.7 9.3 20.8 7.8Z" fill="currentColor"/>
</svg> 