<svg width="24" height="24" viewBox="0 0 24 24" fill="none" xmlns="http://www.w3.org/2000/svg">
    <path d="M17.472 14.382C17.472 14.382 17.472 14.382 17.472 14.382C17.472 14.382 17.472 14.382 17.472 14.382ZM12 2C6.486 2 2 6.486 2 12C2 13.793 2.456 15.486 3.255 16.981L2.035 22L7.17 20.812C8.6 21.534 10.247 21.958 12 21.958C17.514 21.958 22 17.472 22 11.958C22 6.444 17.514 2 12 2ZM16.909 15.393C16.722 15.903 15.931 16.413 15.392 16.507C14.853 16.601 14.314 16.601 13.775 16.413C13.236 16.225 12.697 16.038 11.996 15.663C9.793 14.582 8.431 12.379 8.337 12.285C8.243 12.191 7.4 11.089 7.4 9.893C7.4 8.697 8.056 8.041 8.243 7.76C8.431 7.479 8.712 7.479 8.9 7.479C9.088 7.479 9.369 7.479 9.557 7.479C9.744 7.479 9.932 7.385 10.119 7.854C10.307 8.322 10.775 9.518 10.869 9.612C10.963 9.706 10.963 9.893 10.869 10.081C10.775 10.269 10.775 10.456 10.681 10.55C10.587 10.644 10.493 10.832 10.4 10.925C10.306 11.019 10.212 11.113 10.306 11.394C10.4 11.676 10.869 12.426 11.621 13.084C12.56 13.93 13.312 14.211 13.593 14.305C13.874 14.399 14.062 14.399 14.25 14.211C14.437 14.023 14.906 13.461 15.094 13.179C15.281 12.898 15.469 12.992 15.75 13.086C16.031 13.18 17.227 13.742 17.508 13.93C17.789 14.023 17.977 14.117 18.071 14.211C18.165 14.399 18.165 14.909 17.977 15.419L16.909 15.393Z" fill="currentColor"/>
</svg> 